<svg xmlns="http://www.w3.org/2000/svg" width="40" height="40" viewBox="0 0 40 40">
  <g id="Group_20" data-name="Group 20" transform="translate(-494.449 -708.937)">
    <rect id="Rectangle_7" data-name="Rectangle 7" width="20.165" height="26.351" transform="translate(506.876 715.542)" fill="#fff"/>
    <rect id="Rectangle_6" data-name="Rectangle 6" width="6.516" height="33.836" transform="translate(514.009 715.102)" fill="#fff"/>
    <path id="facebook-svgrepo-com_1_" data-name="facebook-svgrepo-com (1)" d="M34.612,0H5.392A5.39,5.39,0,0,0,0,5.39V34.61A5.39,5.39,0,0,0,5.392,40H19.8l.025-14.294H16.114a.876.876,0,0,1-.876-.873l-.018-4.608a.876.876,0,0,1,.876-.88H19.8V14.894c0-5.167,3.155-7.98,7.764-7.98h3.782a.876.876,0,0,1,.876.876v3.885a.876.876,0,0,1-.876.876H29.029c-2.506,0-2.992,1.191-2.992,2.939v3.854h5.508a.876.876,0,0,1,.87.979l-.546,4.608a.876.876,0,0,1-.87.773H26.062L26.037,40h8.575A5.39,5.39,0,0,0,40,34.61V5.39A5.39,5.39,0,0,0,34.612,0Z" transform="translate(494.447 708.937)" fill="#385898"/>
  </g>
</svg>
