<svg id="instagram-2-1-logo-svgrepo-com" xmlns="http://www.w3.org/2000/svg" xmlns:xlink="http://www.w3.org/1999/xlink" width="40" height="40" viewBox="0 0 40 40">
  <defs>
    <radialGradient id="radial-gradient" cx="0.065" cy="0.978" r="1.27" gradientTransform="translate(0)" gradientUnits="objectBoundingBox">
      <stop offset="0.09" stop-color="#fa8f21"/>
      <stop offset="0.78" stop-color="#d82d7e"/>
    </radialGradient>
    <radialGradient id="radial-gradient-2" cx="0.693" cy="0.946" r="1.117" gradientTransform="translate(0)" gradientUnits="objectBoundingBox">
      <stop offset="0.64" stop-color="#8c3aaa" stop-opacity="0"/>
      <stop offset="1" stop-color="#8c3aaa"/>
    </radialGradient>
  </defs>
  <path id="Path_1" data-name="Path 1" d="M10.143,39.859a13.467,13.467,0,0,1-4.531-.839,7.58,7.58,0,0,1-2.806-1.825,7.522,7.522,0,0,1-1.825-2.8,13.467,13.467,0,0,1-.839-4.531C.024,27.288,0,26.516,0,20s.026-7.285.141-9.859A13.543,13.543,0,0,1,.981,5.612,7.609,7.609,0,0,1,2.806,2.806,7.532,7.532,0,0,1,5.611.981,13.467,13.467,0,0,1,10.142.141C12.714.024,13.487,0,20,0s7.285.026,9.859.141a13.543,13.543,0,0,1,4.531.839,7.551,7.551,0,0,1,2.806,1.825,7.556,7.556,0,0,1,1.825,2.806,13.467,13.467,0,0,1,.839,4.531C39.976,12.716,40,13.486,40,20s-.024,7.285-.141,9.859a13.529,13.529,0,0,1-.839,4.531,8.078,8.078,0,0,1-4.63,4.629,13.467,13.467,0,0,1-4.531.839C27.287,39.976,26.514,40,20,40s-7.285-.023-9.856-.141" transform="translate(0 0)" fill="url(#radial-gradient)"/>
  <path id="Path_2" data-name="Path 2" d="M10.143,39.859a13.467,13.467,0,0,1-4.531-.839,7.58,7.58,0,0,1-2.806-1.825,7.522,7.522,0,0,1-1.825-2.8,13.467,13.467,0,0,1-.839-4.531C.024,27.288,0,26.516,0,20s.026-7.285.141-9.859A13.543,13.543,0,0,1,.981,5.612,7.609,7.609,0,0,1,2.806,2.806,7.532,7.532,0,0,1,5.611.981,13.467,13.467,0,0,1,10.142.141C12.714.024,13.487,0,20,0s7.285.026,9.859.141a13.543,13.543,0,0,1,4.531.839,7.551,7.551,0,0,1,2.806,1.825,7.556,7.556,0,0,1,1.825,2.806,13.467,13.467,0,0,1,.839,4.531C39.976,12.716,40,13.486,40,20s-.024,7.285-.141,9.859a13.529,13.529,0,0,1-.839,4.531,8.078,8.078,0,0,1-4.63,4.629,13.467,13.467,0,0,1-4.531.839C27.287,39.976,26.514,40,20,40s-7.285-.023-9.856-.141" transform="translate(0 0)" fill="url(#radial-gradient-2)"/>
  <path id="Path_3" data-name="Path 3" d="M445.758,454.38a4.953,4.953,0,1,1,4.953,4.954,4.953,4.953,0,0,1-4.953-4.954m-2.678,0a7.631,7.631,0,1,0,7.631-7.63,7.63,7.63,0,0,0-7.631,7.63m13.78-7.933a1.783,1.783,0,1,0,1.784-1.782h0a1.785,1.785,0,0,0-1.783,1.782m-12.153,20.029a8.214,8.214,0,0,1-2.759-.511,4.92,4.92,0,0,1-2.821-2.819,8.221,8.221,0,0,1-.511-2.76c-.072-1.566-.086-2.037-.086-6.005s.015-4.437.086-6.005a8.293,8.293,0,0,1,.511-2.76,4.63,4.63,0,0,1,1.112-1.709,4.582,4.582,0,0,1,1.709-1.112,8.217,8.217,0,0,1,2.759-.511c1.566-.072,2.037-.086,6-.086s4.438.015,6,.086a8.268,8.268,0,0,1,2.76.511,4.918,4.918,0,0,1,2.821,2.821,8.2,8.2,0,0,1,.511,2.76c.072,1.567.086,2.037.086,6.005s-.014,4.438-.086,6a8.243,8.243,0,0,1-.511,2.76,4.924,4.924,0,0,1-2.821,2.82,8.224,8.224,0,0,1-2.76.511c-1.566.072-2.037.086-6,.086s-4.437-.014-6-.086m-.123-26.866a10.891,10.891,0,0,0-3.607.69,7.6,7.6,0,0,0-4.347,4.347,10.917,10.917,0,0,0-.69,3.606c-.073,1.584-.09,2.091-.09,6.126s.017,4.542.09,6.127a10.923,10.923,0,0,0,.69,3.607,7.6,7.6,0,0,0,4.347,4.347,10.928,10.928,0,0,0,3.607.69c1.585.072,2.091.09,6.127.09s4.542-.017,6.126-.09a10.917,10.917,0,0,0,3.606-.69,7.6,7.6,0,0,0,4.347-4.347,10.873,10.873,0,0,0,.69-3.607c.073-1.586.089-2.091.089-6.127s-.016-4.542-.089-6.126a10.889,10.889,0,0,0-.69-3.606,7.6,7.6,0,0,0-4.345-4.347,10.882,10.882,0,0,0-3.607-.69c-1.585-.072-2.091-.09-6.126-.09s-4.542.017-6.128.09" transform="translate(-430.669 -434.295)" fill="#fff"/>
</svg>
