<svg xmlns="http://www.w3.org/2000/svg" width="40" height="40" viewBox="0 0 40 40">
  <g id="Group_18" data-name="Group 18" transform="translate(494.001 -10.937)">
    <g id="Ellipse_1" data-name="Ellipse 1" transform="translate(-491.313 12.726)" fill="#1db954" stroke="#707070" stroke-width="1">
      <circle cx="17.831" cy="17.831" r="17.831" stroke="none"/>
      <circle cx="17.831" cy="17.831" r="17.331" fill="none"/>
    </g>
    <g id="spotify-logo-svgrepo-com" transform="translate(-494.001 10.937)">
      <g id="Group_6" data-name="Group 6">
        <path id="Path_4" data-name="Path 4" d="M42.076,44.8a23.484,23.484,0,0,0-11.92-3.077,23.069,23.069,0,0,0-6.583.913,1.328,1.328,0,0,0-1.038,1.394,1.307,1.307,0,0,0,1.3,1.309,2.808,2.808,0,0,0,.813-.186,21.119,21.119,0,0,1,5.448-.7,21.169,21.169,0,0,1,10.6,2.683,1.535,1.535,0,0,0,.836.289,1.3,1.3,0,0,0,1.3-1.307A1.365,1.365,0,0,0,42.076,44.8Z" transform="translate(-12.946 -23.97)" fill="#191414"/>
        <path id="Path_5" data-name="Path 5" d="M41.031,57.052a18.568,18.568,0,0,0-9.71-2.517,27.9,27.9,0,0,0-6.248.738,1.067,1.067,0,0,0-.909,1.147,1.042,1.042,0,0,0,1.057,1.049,5.25,5.25,0,0,0,.823-.165,26.105,26.105,0,0,1,5.266-.578,16.739,16.739,0,0,1,8.638,2.233,1.273,1.273,0,0,0,.706.247,1.04,1.04,0,0,0,1.038-1.044A1.111,1.111,0,0,0,41.031,57.052Z" transform="translate(-13.881 -31.329)" fill="#191414"/>
        <path id="Path_6" data-name="Path 6" d="M42.8,31.465c-3.768-2.212-8.926-3.221-13.827-3.221a28.076,28.076,0,0,0-7.924,1.028,1.582,1.582,0,0,0-1.169,1.6,1.565,1.565,0,0,0,1.574,1.595,3.515,3.515,0,0,0,.856-.183,25.76,25.76,0,0,1,6.669-.8c4.535,0,9.224,1,12.246,2.81a1.584,1.584,0,0,0,.86.257,1.557,1.557,0,0,0,1.575-1.564A1.585,1.585,0,0,0,42.8,31.465Z" transform="translate(-11.418 -16.225)" fill="#191414"/>
        <path id="Path_7" data-name="Path 7" d="M37.872,0H2.128A2.128,2.128,0,0,0,0,2.128V37.872A2.128,2.128,0,0,0,2.128,40H37.872A2.128,2.128,0,0,0,40,37.872V2.128A2.128,2.128,0,0,0,37.872,0ZM20,36.694A16.694,16.694,0,1,1,36.694,20,16.694,16.694,0,0,1,20,36.694Z" transform="translate(0 0)" fill="#191414"/>
      </g>
    </g>
  </g>
</svg>
