<svg xmlns="http://www.w3.org/2000/svg" width="40" height="40" viewBox="0 0 40 40">
  <g id="Group_19" data-name="Group 19" transform="translate(820 -5.15)">
    <rect id="Rectangle_5" data-name="Rectangle 5" width="40" height="40" rx="10" transform="translate(-820 5.15)" fill="#fff"/>
    <g id="youtube-svgrepo-com" transform="translate(-818.083 12.354)">
      <path id="Path_8" data-name="Path 8" d="M28.654,67.393H7.511A7.511,7.511,0,0,0,0,74.9V85.473a7.511,7.511,0,0,0,7.511,7.511H28.654a7.511,7.511,0,0,0,7.511-7.511V74.9A7.511,7.511,0,0,0,28.654,67.393ZM23.575,80.7,13.685,85.42a.4.4,0,0,1-.568-.358V75.333a.4.4,0,0,1,.576-.354l9.889,5.011A.4.4,0,0,1,23.575,80.7Z" transform="translate(0 -67.393)" fill="#f61c0d"/>
    </g>
  </g>
</svg>
